HIERARCHY
ROOT hips
{
	OFFSET 0.000000 104.274902 0.000000
	CHANNELS 6 Xposition Yposition Zposition Xrotation Yrotation Zrotation
	JOINT spine
	{
		OFFSET 0.000000 10.181549 0.131524
		CHANNELS 6 Xposition Yposition Zposition Xrotation Yrotation Zrotation
		JOINT chest
		{
			OFFSET 0.000000 9.893990 -1.470706
			CHANNELS 3 Xrotation Yrotation Zrotation
			JOINT upperChest
			{
				OFFSET 0.000000 9.220787 -1.370637
				CHANNELS 3 Xrotation Yrotation Zrotation
				JOINT neck
				{
					OFFSET 0.000000 16.740372 -2.049022
					CHANNELS 6 Xposition Yposition Zposition Xrotation Yrotation Zrotation
					JOINT head
					{
						OFFSET 0.000000 9.617859 1.684976
						CHANNELS 6 Xposition Yposition Zposition Xrotation Yrotation Zrotation
						JOINT headEnd
						{
							OFFSET 0.000000 22.037384 7.501072
							CHANNELS 6 Xposition Yposition Zposition Xrotation Yrotation Zrotation
							End Site
							{
								OFFSET 0.000000 23.106567 -2.828246
							}
						}
					}
				}
				JOINT rightShoulder
				{
					OFFSET -4.570000 11.014877 -2.160840
					CHANNELS 6 Xposition Yposition Zposition Xrotation Yrotation Zrotation
					JOINT rightUpperArm
					{
						OFFSET -10.592867 -0.524796 -2.232105
						CHANNELS 3 Xrotation Yrotation Zrotation
						JOINT rightLowerArm
						{
							OFFSET -27.841497 0.000000 -0.000002
							CHANNELS 3 Xrotation Yrotation Zrotation
							JOINT rightHand
							{
								OFFSET -28.328812 0.000000 -0.000001
								CHANNELS 3 Xrotation Yrotation Zrotation
								JOINT rightThumbProximal
								{
									OFFSET -2.464798 -1.573990 2.681911
									CHANNELS 6 Xposition Yposition Zposition Xrotation Yrotation Zrotation
									JOINT rightThumbIntermediate
									{
										OFFSET -3.244781 -1.873383 1.873376
										CHANNELS 3 Xrotation Yrotation Zrotation
										JOINT rightThumbDistal
										{
											OFFSET -2.646263 -1.527817 1.527818
											CHANNELS 6 Xposition Yposition Zposition Xrotation Yrotation Zrotation
											JOINT rightHandThumb4
											{
												OFFSET -1.994591 -1.151581 1.151575
												CHANNELS 6 Xposition Yposition Zposition Xrotation Yrotation Zrotation
												End Site
												{
													OFFSET -1.860176 -1.142715 1.365483
												}
											}
										}
									}
								}
								JOINT rightIndexProximal
								{
									OFFSET -9.108299 -0.517883 2.259803
									CHANNELS 6 Xposition Yposition Zposition Xrotation Yrotation Zrotation
									JOINT rightIndexIntermediate
									{
										OFFSET -3.699997 0.000000 0.000000
										CHANNELS 3 Xrotation Yrotation Zrotation
										JOINT rightIndexDistal
										{
											OFFSET -2.850006 0.000000 0.000000
											CHANNELS 3 Xrotation Yrotation Zrotation
											JOINT rightHandIndex4
											{
												OFFSET -2.772194 0.000000 0.000000
												CHANNELS 3 Xrotation Yrotation Zrotation
												End Site
												{
													OFFSET -2.772202 0.000000 -0.000484
												}
											}
										}
									}
								}
								JOINT rightMiddleProximal
								{
									OFFSET -9.532501 0.000000 -0.000000
									CHANNELS 6 Xposition Yposition Zposition Xrotation Yrotation Zrotation
									JOINT rightMiddleIntermediate
									{
										OFFSET -3.699997 0.000000 0.000000
										CHANNELS 3 Xrotation Yrotation Zrotation
										JOINT rightMiddleDistal
										{
											OFFSET -2.949997 0.000000 0.000000
											CHANNELS 3 Xrotation Yrotation Zrotation
											JOINT rightHandMiddle4
											{
												OFFSET -2.946594 0.000000 0.000000
												CHANNELS 3 Xrotation Yrotation Zrotation
												End Site
												{
													OFFSET -2.946602 0.000000 -0.000982
												}
											}
										}
									}
								}
								JOINT rightRingProximal
								{
									OFFSET -9.103600 -0.043106 -1.865100
									CHANNELS 6 Xposition Yposition Zposition Xrotation Yrotation Zrotation
									JOINT rightRingIntermediate
									{
										OFFSET -3.379303 0.000000 0.000000
										CHANNELS 3 Xrotation Yrotation Zrotation
										JOINT rightRingDistal
										{
											OFFSET -2.889694 0.000000 0.000000
											CHANNELS 3 Xrotation Yrotation Zrotation
											JOINT rightHandRing4
											{
												OFFSET -2.638802 0.000000 0.000000
												CHANNELS 3 Xrotation Yrotation Zrotation
												End Site
												{
													OFFSET -2.638802 0.000000 0.004218
												}
											}
										}
									}
								}
								JOINT rightLittleProximal
								{
									OFFSET -8.076698 -0.486725 -3.806299
									CHANNELS 6 Xposition Yposition Zposition Xrotation Yrotation Zrotation
									JOINT rightLittleIntermediate
									{
										OFFSET -3.600006 0.000000 0.000000
										CHANNELS 3 Xrotation Yrotation Zrotation
										JOINT rightLittleDistal
										{
											OFFSET -2.099998 0.000000 0.000000
											CHANNELS 3 Xrotation Yrotation Zrotation
											JOINT rightHandPinky4
											{
												OFFSET -2.115791 0.000000 0.000000
												CHANNELS 3 Xrotation Yrotation Zrotation
												End Site
												{
													OFFSET -2.115799 0.000000 0.000174
												}
											}
										}
									}
								}
							}
						}
					}
				}
				JOINT leftShoulder
				{
					OFFSET 4.570400 11.014679 -2.160816
					CHANNELS 6 Xposition Yposition Zposition Xrotation Yrotation Zrotation
					JOINT leftUpperArm
					{
						OFFSET 10.592373 -0.524597 -2.232116
						CHANNELS 3 Xrotation Yrotation Zrotation
						JOINT leftLowerArm
						{
							OFFSET 27.841488 0.000000 0.000001
							CHANNELS 3 Xrotation Yrotation Zrotation
							JOINT leftHand
							{
								OFFSET 28.328808 0.000000 -0.000000
								CHANNELS 3 Xrotation Yrotation Zrotation
								JOINT leftThumbProximal
								{
									OFFSET 2.466103 -1.576202 2.681698
									CHANNELS 6 Xposition Yposition Zposition Xrotation Yrotation Zrotation
									JOINT leftThumbIntermediate
									{
										OFFSET 3.243317 -1.872528 1.872530
										CHANNELS 3 Xrotation Yrotation Zrotation
										JOINT leftThumbDistal
										{
											OFFSET 2.647881 -1.528763 1.528754
											CHANNELS 6 Xposition Yposition Zposition Xrotation Yrotation Zrotation
											JOINT leftHandThumb4
											{
												OFFSET 1.998924 -1.154083 1.154080
												CHANNELS 6 Xposition Yposition Zposition Xrotation Yrotation Zrotation
												End Site
												{
													OFFSET 1.884041 -1.149155 1.337651
												}
											}
										}
									}
								}
								JOINT leftIndexProximal
								{
									OFFSET 9.109299 -0.518005 2.259900
									CHANNELS 6 Xposition Yposition Zposition Xrotation Yrotation Zrotation
									JOINT leftIndexIntermediate
									{
										OFFSET 3.699997 0.000000 0.000000
										CHANNELS 3 Xrotation Yrotation Zrotation
										JOINT leftIndexDistal
										{
											OFFSET 2.850006 0.000000 0.000000
											CHANNELS 3 Xrotation Yrotation Zrotation
											JOINT leftHandIndex4
											{
												OFFSET 2.774895 0.000000 0.000000
												CHANNELS 3 Xrotation Yrotation Zrotation
												End Site
												{
													OFFSET 2.774902 0.000000 -0.000072
												}
											}
										}
									}
								}
								JOINT leftMiddleProximal
								{
									OFFSET 9.533401 0.000000 0.000000
									CHANNELS 6 Xposition Yposition Zposition Xrotation Yrotation Zrotation
									JOINT leftMiddleIntermediate
									{
										OFFSET 3.699997 0.000000 0.000000
										CHANNELS 3 Xrotation Yrotation Zrotation
										JOINT leftMiddleDistal
										{
											OFFSET 2.949997 0.000000 0.000000
											CHANNELS 3 Xrotation Yrotation Zrotation
											JOINT leftHandMiddle4
											{
												OFFSET 2.952896 0.000000 0.000000
												CHANNELS 3 Xrotation Yrotation Zrotation
												End Site
												{
													OFFSET 2.952904 0.000000 0.000165
												}
											}
										}
									}
								}
								JOINT leftRingProximal
								{
									OFFSET 9.104500 -0.042999 -1.865101
									CHANNELS 6 Xposition Yposition Zposition Xrotation Yrotation Zrotation
									JOINT leftRingIntermediate
									{
										OFFSET 3.149994 0.000000 0.000000
										CHANNELS 3 Xrotation Yrotation Zrotation
										JOINT leftRingDistal
										{
											OFFSET 2.950005 0.000000 0.000000
											CHANNELS 3 Xrotation Yrotation Zrotation
											JOINT leftHandRing4
											{
												OFFSET 2.644302 0.000000 0.000000
												CHANNELS 3 Xrotation Yrotation Zrotation
												End Site
												{
													OFFSET 2.644302 0.000000 0.000083
												}
											}
										}
									}
								}
								JOINT leftLittleProximal
								{
									OFFSET 8.077805 -0.486893 -3.806302
									CHANNELS 6 Xposition Yposition Zposition Xrotation Yrotation Zrotation
									JOINT leftLittleIntermediate
									{
										OFFSET 3.600006 0.000000 0.000000
										CHANNELS 3 Xrotation Yrotation Zrotation
										JOINT leftLittleDistal
										{
											OFFSET 2.099998 0.000000 0.000000
											CHANNELS 3 Xrotation Yrotation Zrotation
											JOINT leftHandPinky4
											{
												OFFSET 2.125496 0.000000 0.000000
												CHANNELS 3 Xrotation Yrotation Zrotation
												End Site
												{
													OFFSET 2.125504 0.000000 -0.001254
												}
											}
										}
									}
								}
							}
						}
					}
				}
			}
		}
	}
	JOINT rightUpperLeg
	{
		OFFSET -8.207800 -6.751701 -1.599544
		CHANNELS 6 Xposition Yposition Zposition Xrotation Yrotation Zrotation
		JOINT rightLowerLeg
		{
			OFFSET 0.000004 -44.370152 0.345934
			CHANNELS 3 Xrotation Yrotation Zrotation
			JOINT rightFoot
			{
				OFFSET 0.000004 -44.423664 -3.043535
				CHANNELS 3 Xrotation Yrotation Zrotation
				JOINT rightToes
				{
					OFFSET 0.000001 -8.728691 10.710592
					CHANNELS 3 Xrotation Yrotation Zrotation
					JOINT rightToesEnd
					{
						OFFSET 0.000000 -0.000665 9.278101
						CHANNELS 3 Xrotation Yrotation Zrotation
						End Site
						{
							OFFSET 0.000000 -0.000665 9.278103
						}
					}
				}
			}
		}
	}
	JOINT leftUpperLeg
	{
		OFFSET 8.207800 -6.751701 -1.599544
		CHANNELS 6 Xposition Yposition Zposition Xrotation Yrotation Zrotation
		JOINT leftLowerLeg
		{
			OFFSET 0.000004 -44.370037 0.346940
			CHANNELS 3 Xrotation Yrotation Zrotation
			JOINT leftFoot
			{
				OFFSET 0.000004 -44.423611 -3.044388
				CHANNELS 3 Xrotation Yrotation Zrotation
				JOINT leftToes
				{
					OFFSET 0.000001 -8.728690 10.710592
					CHANNELS 3 Xrotation Yrotation Zrotation
					JOINT leftToesEnd
					{
						OFFSET 0.000000 -0.000680 9.278101
						CHANNELS 3 Xrotation Yrotation Zrotation
						End Site
						{
							OFFSET 0.000000 -0.000680 9.278101
						}
					}
				}
			}
		}
	}
}
MOTION
Frames: 4
Frame Time: 0.033333
9.437267 112.104446 63.513577 -24.315132 27.269064 6.833260 0.000001 10.181549 0.131520 -0.000041 -1.087693 -0.387412 -0.015666 -1.341730 -1.291667 -0.015682 -1.341721 -1.291667 -0.000006 16.740364 -2.049012 19.075450 -1.145977 -5.024279 -0.000004 9.617879 1.684954 26.194824 -12.575184 -4.665120 0.000008 22.037354 7.501079 -0.000001 -0.000000 -0.000000 -4.570004 11.014873 -2.160834 0.179996 12.180584 14.991476 29.172424 -20.020099 40.143709 1.950484 29.805289 -0.969747 38.298913 -15.373214 34.261270 -2.464794 -1.573989 2.681910 -12.089461 6.776786 -4.635459 4.902112 3.611522 -7.703141 -2.646276 -1.527804 1.527820 0.000008 -0.000006 -0.000004 -1.994599 -1.151571 1.151577 -0.000003 -0.000007 0.000003 -9.108299 -0.517875 2.259807 -5.146592 4.536581 -2.189500 0.063356 -0.699211 7.915977 -0.000005 0.000009 -0.000009 -0.000001 0.000001 0.000001 -9.532496 0.000003 0.000003 0.031453 -6.448704 6.459233 -0.345160 1.291434 23.625720 -0.000000 -0.000000 0.000001 -0.000002 -0.000002 -0.000001 -9.103590 -0.043094 -1.865088 -1.771545 -14.468134 23.104609 -1.039962 1.531059 44.902176 -0.000005 -0.000009 -0.000004 0.000002 0.000004 -0.000001 -8.076696 -0.486722 -3.806299 0.365917 -22.847176 40.529574 -1.723912 4.286781 44.420607 0.000004 -0.000011 0.000008 0.000002 -0.000001 -0.000002 4.570396 11.014675 -2.160813 -13.913451 8.297378 9.505736 5.907384 -9.928514 -1.012182 3.959451 -45.867025 2.844001 7.348225 -10.124953 -26.357213 2.466098 -1.576211 2.681688 -10.236300 1.776734 -9.854771 5.407646 12.774481 6.977100 2.647896 -1.528745 1.528759 0.000004 -0.000001 0.000003 1.998920 -1.154083 1.154070 -0.000001 -0.000003 0.000002 9.109302 -0.518027 2.259888 -6.316497 2.359801 -6.080780 0.874207 2.109315 -25.361940 -0.000003 0.000002 -0.000003 -0.000001 0.000001 -0.000003 9.533401 0.000005 -0.000015 -0.825390 6.707580 -10.989493 -0.359311 -1.350919 -31.533563 0.000000 -0.000001 -0.000000 -0.000000 -0.000000 -0.000001 9.104503 -0.042994 -1.865114 -0.248389 11.570443 -8.985941 -1.370664 -2.393834 -39.558226 -0.000001 -0.000000 0.000000 -0.000001 -0.000000 -0.000002 8.077816 -0.486906 -3.806309 2.969012 19.662832 -18.475165 -1.147753 -4.084519 -24.021862 0.000001 0.000001 0.000002 0.000000 0.000000 0.000003 -8.207799 -6.751712 -1.599548 -45.814375 -6.573514 -4.251047 103.388451 2.186940 2.366326 8.172431 -10.902027 27.007686 -0.791105 0.005046 -0.003835 -0.000002 -0.000000 0.000001 8.207805 -6.751705 -1.599542 12.729181 -4.599278 24.658897 95.774552 -1.623031 -2.481173 -17.110474 -10.386045 5.011342 -18.014527 -0.095385 0.243072 -0.000001 0.000003 0.000001 
10.246525 109.995529 72.171913 -24.671171 21.904213 5.535222 -0.000001 10.181549 0.131526 -0.006647 -1.348737 -0.292167 -0.027045 -2.330419 -0.827110 -0.027040 -2.330412 -0.827109 -0.000002 16.740381 -2.049001 13.952705 0.013036 -5.596056 0.000000 9.617858 1.684976 28.866073 -7.150133 -7.698309 -0.000001 22.037384 7.501070 -0.000000 0.000000 0.000001 -4.570001 11.014890 -2.160823 0.422301 10.294621 12.440820 24.339545 -34.189465 29.716186 3.683607 38.080364 -2.273844 43.894853 -21.877344 40.066395 -2.464806 -1.573984 2.681915 -11.882343 7.226532 -3.402256 5.254187 2.606200 -7.836653 -2.646262 -1.527801 1.527809 0.000016 -0.000006 -0.000007 -1.994593 -1.151584 1.151575 0.000002 0.000004 0.000001 -9.108288 -0.517873 2.259805 -4.943542 5.546887 -6.244463 0.039994 -0.435632 2.313473 0.000003 0.000012 -0.000006 0.000004 0.000000 0.000004 -9.532498 -0.000004 0.000006 0.070435 -6.930091 -0.338241 -0.180044 0.836019 16.304201 0.000000 0.000002 -0.000001 -0.000000 0.000001 0.000002 -9.103602 -0.043092 -1.865089 -1.633912 -14.828103 17.517272 -0.644313 1.064535 35.528667 -0.000005 -0.000006 -0.000004 -0.000000 0.000004 -0.000000 -8.076707 -0.486722 -3.806290 0.651001 -23.168111 36.614926 -1.080586 3.518560 35.193004 0.000003 -0.000012 0.000010 -0.000000 -0.000001 0.000003 4.570399 11.014706 -2.160802 -17.823993 8.298906 10.402125 -7.970104 -7.889141 7.480021 3.743777 -41.044550 2.460324 3.230918 -8.186425 -18.608055 2.466099 -1.576224 2.681698 -10.117964 0.553977 -9.659728 6.368083 12.676397 7.451582 2.647876 -1.528754 1.528754 0.000003 -0.000006 0.000002 1.998921 -1.154112 1.154070 -0.000001 0.000003 0.000001 9.109314 -0.518039 2.259901 -6.700956 0.125181 -1.561755 0.719767 1.744534 -20.154842 -0.000003 0.000005 -0.000006 -0.000003 -0.000001 0.000000 9.533410 -0.000010 0.000001 -0.767794 7.015170 -6.104525 -0.234099 -1.126099 -26.718203 -0.000001 0.000002 -0.000000 -0.000003 0.000001 -0.000001 9.104504 -0.043015 -1.865100 0.096791 12.714669 -5.198093 -1.055415 -1.975774 -34.315577 0.000001 0.000001 0.000003 0.000002 0.000003 0.000002 8.077800 -0.486913 -3.806305 4.191414 21.981132 -15.715393 -0.880516 -3.424603 -20.133606 0.000001 -0.000001 0.000000 -0.000000 -0.000002 -0.000000 -8.207800 -6.751698 -1.599543 -42.126971 -6.713747 -3.110203 86.462941 1.872103 2.435667 3.608955 -17.074880 20.124688 0.400220 -0.002547 0.001969 -0.000001 -0.000001 -0.000001 8.207794 -6.751708 -1.599540 22.702587 0.350898 26.716842 90.645660 -1.455341 -2.439564 -10.426656 -10.971395 7.361566 -17.261877 -0.108630 0.052424 -0.000002 0.000000 0.000000 
11.064160 107.717514 80.865662 -24.143249 16.564431 4.608853 -0.000003 10.181549 0.131522 0.013175 -1.445348 -0.116988 0.017326 -3.315782 -0.369770 0.017323 -3.315778 -0.369771 -0.000002 16.740358 -2.049034 2.907848 1.951749 -5.507071 -0.000003 9.617863 1.684981 27.423324 -2.527568 -9.853633 -0.000004 22.037369 7.501068 -0.000000 -0.000000 -0.000000 -4.570001 11.014866 -2.160848 0.646257 6.905731 7.765884 9.544568 -34.509346 14.859126 4.418637 38.898648 -2.777956 47.476327 -25.924471 37.594266 -2.464800 -1.574009 2.681911 -11.696097 7.594212 -2.353592 5.595846 1.620540 -7.968964 -2.646268 -1.527813 1.527814 0.000008 -0.000011 -0.000004 -1.994594 -1.151577 1.151577 -0.000004 -0.000002 0.000001 -9.108309 -0.517901 2.259804 -4.682944 6.408360 -9.774609 0.047055 0.071770 -0.000024 -0.000001 0.000009 -0.000008 0.000002 0.000001 0.000002 -9.532504 0.000006 0.000011 0.050302 -7.392711 -6.251314 -0.085037 0.426647 9.947480 -0.000002 0.000000 0.000003 -0.000000 0.000000 0.000001 -9.103616 -0.043106 -1.865093 -1.560363 -15.205855 12.585440 -0.364635 0.610409 27.368226 -0.000005 -0.000011 -0.000001 0.000000 0.000001 0.000000 -8.076700 -0.486739 -3.806287 0.890961 -23.510860 33.111077 -0.624850 2.772790 27.152512 0.000003 -0.000009 0.000009 0.000000 0.000000 0.000000 4.570398 11.014680 -2.160818 -21.313904 8.241405 11.144182 -21.120178 -5.989623 14.795978 3.106981 -36.444107 1.846833 -0.070274 -6.215428 -7.992020 2.466092 -1.576218 2.681690 -9.894499 -0.574115 -9.456318 7.268623 12.492025 7.904706 2.647879 -1.528760 1.528752 0.000003 0.000001 0.000007 1.998921 -1.154083 1.154090 0.000002 -0.000001 0.000001 9.109291 -0.518009 2.259896 -6.791425 -2.049327 2.926425 0.600064 1.358119 -14.830332 -0.000005 0.000005 -0.000006 -0.000002 0.000003 -0.000002 9.533409 0.000002 -0.000009 -0.741457 7.378159 -1.204701 -0.127431 -0.891034 -21.894247 -0.000001 -0.000003 0.000000 0.000002 -0.000003 0.000000 9.104481 -0.043000 -1.865106 0.293806 13.884175 -1.586803 -0.775897 -1.521882 -28.985048 -0.000001 -0.000000 0.000000 -0.000004 -0.000000 -0.000000 8.077793 -0.486899 -3.806304 5.113833 24.230528 -13.219404 -0.676942 -2.805698 -16.577313 0.000001 -0.000000 0.000000 0.000001 -0.000002 0.000000 -8.207800 -6.751725 -1.599550 -36.670381 -6.608127 -1.915279 64.822607 1.479797 2.221435 -2.581088 -18.009126 10.545202 -0.526587 0.003364 -0.002550 -0.000000 -0.000001 0.000001 8.207796 -6.751718 -1.599550 30.034698 4.488403 25.835544 85.945097 -1.182677 -2.374435 2.295342 -7.977856 7.276228 -19.032880 -0.119911 0.055855 0.000001 -0.000000 -0.000001 
12.078801 104.732162 89.712509 -22.702381 11.926776 4.330224 0.000002 10.181546 0.131523 -0.018522 -1.491960 0.089905 -0.043363 -4.141467 -0.014572 -0.043383 -4.141464 -0.014573 -0.000001 16.740366 -2.049039 -8.096784 3.768153 -4.855586 0.000001 9.617855 1.684960 22.891960 0.994326 -10.279010 -0.000005 22.037369 7.501075 0.000001 0.000001 0.000001 -4.569999 11.014856 -2.160862 0.571687 3.153766 3.278874 -0.988728 -25.310970 6.068604 4.611711 36.825593 -2.767964 45.655320 -26.416697 28.345044 -2.464794 -1.573977 2.681906 -11.561568 7.842427 -1.625342 5.837606 0.923589 -8.059616 -2.646262 -1.527814 1.527811 0.000007 -0.000008 -0.000003 -1.994597 -1.151575 1.151570 0.000005 -0.000001 -0.000000 -9.108302 -0.517856 2.259792 -4.452850 7.004001 -12.269165 0.087175 0.600686 -0.000032 -0.000004 0.000009 -0.000008 -0.000001 -0.000000 0.000000 -9.532491 0.000030 -0.000000 0.001104 -7.740214 -10.425970 -0.045716 0.133195 5.466638 0.000002 -0.000002 -0.000001 0.000002 -0.000002 -0.000002 -9.103594 -0.043083 -1.865100 -1.540620 -15.506512 9.067915 -0.206778 0.267894 21.605241 -0.000008 -0.000006 -0.000003 -0.000001 -0.000000 -0.000002 -8.076700 -0.486708 -3.806292 1.051656 -23.790198 30.589603 -0.366792 2.211015 21.471065 0.000002 -0.000007 0.000008 0.000001 0.000002 -0.000000 4.570400 11.014693 -2.160846 -24.123385 8.159324 11.699764 -32.499768 -4.252308 20.105847 2.048235 -32.150940 1.090303 -2.153475 -4.246417 6.257299 2.466113 -1.576204 2.681702 -9.601686 -1.545298 -9.269146 8.054781 12.258998 8.309543 2.647884 -1.528749 1.528765 0.000003 -0.000001 0.000008 1.998908 -1.154097 1.154061 -0.000003 -0.000005 0.000003 9.109297 -0.518007 2.259901 -6.632144 -3.992809 7.110765 0.522825 0.980493 -9.752229 -0.000003 0.000004 -0.000006 0.000001 -0.000002 -0.000001 9.533384 0.000002 -0.000000 -0.754901 7.761250 3.390871 -0.045465 -0.664121 -17.390758 0.000001 -0.000002 -0.000002 -0.000002 -0.000002 -0.000002 9.104504 -0.043004 -1.865100 0.350958 14.971817 1.585543 -0.550572 -1.066319 -23.909688 -0.000001 0.000003 -0.000001 -0.000001 0.000004 0.000000 8.077813 -0.486895 -3.806306 5.728110 26.193058 -11.164333 -0.537387 -2.278784 -13.603006 0.000000 -0.000001 -0.000000 0.000001 -0.000002 0.000001 -8.207799 -6.751720 -1.599549 -28.948507 -5.726701 -0.665960 39.565189 1.083215 1.580406 -8.865068 -14.464182 3.216238 -1.088435 0.006948 -0.005256 0.000001 0.000000 0.000000 8.207802 -6.751698 -1.599556 34.082224 6.292434 22.346914 84.115938 -1.048388 -2.337230 17.411737 -0.222311 5.800038 -13.004200 -0.081447 0.042668 -0.000001 0.000001 0.000001 
